<svg width="140" height="26" viewBox="0 0 140 26" fill="none" xmlns="http://www.w3.org/2000/svg">
<path d="M39.5767 19.9768C40.0792 19.9768 40.5198 19.9303 40.8931 19.8398C41.2652 19.7488 41.6212 19.6231 41.9606 19.4618V17.2779H40.4561C40.3126 17.2779 40.1977 17.238 40.1161 17.1594C40.0327 17.0766 39.9905 16.979 39.9905 16.8629V15.5983H43.9885V20.4585C43.6819 20.6817 43.3652 20.8723 43.0377 21.0372C42.7072 21.1991 42.356 21.3373 41.9815 21.4397C41.607 21.5445 41.2045 21.6248 40.7811 21.6766C40.356 21.729 39.8952 21.7546 39.3998 21.7546C38.5252 21.7546 37.7208 21.6034 36.9837 21.2992C36.246 20.9931 35.6089 20.571 35.0695 20.0256C34.5343 19.4862 34.1157 18.836 33.8132 18.0834C33.5108 17.3326 33.3613 16.508 33.3613 15.6161C33.3613 14.7123 33.509 13.8823 33.8019 13.1309C34.0949 12.376 34.511 11.7282 35.0528 11.1864C35.5905 10.6434 36.246 10.2224 37.0159 9.92354C37.7857 9.62346 38.652 9.47461 39.607 9.47461C40.5882 9.47461 41.4373 9.62108 42.1559 9.91222C42.8734 10.2028 43.4795 10.5809 43.9784 11.0459L43.3306 12.0586C43.205 12.2634 43.0377 12.3658 42.8234 12.3658C42.6888 12.3658 42.556 12.323 42.4185 12.2331C42.2399 12.1271 42.0583 12.0241 41.8743 11.9193C41.6885 11.8121 41.4837 11.7216 41.2557 11.6436C41.0348 11.5656 40.7811 11.5019 40.5025 11.4519C40.2233 11.4019 39.9012 11.3799 39.5326 11.3799C38.9396 11.3799 38.4043 11.4775 37.9244 11.6776C37.4463 11.8752 37.0391 12.1598 36.7021 12.5332C36.3627 12.9041 36.1019 13.3483 35.918 13.8692C35.737 14.3902 35.6459 14.9719 35.6459 15.6161C35.6459 16.308 35.7435 16.9254 35.937 17.4672C36.1299 18.0025 36.402 18.4615 36.7509 18.8312C37.1022 19.2022 37.516 19.4862 37.9965 19.6827C38.4787 19.8791 39.0069 19.9768 39.5767 19.9768Z" fill="white"/>
<path d="M45.8486 21.6215V13.0978H47.0531C47.2627 13.0978 47.4092 13.1359 47.4931 13.2139C47.5765 13.2907 47.6324 13.4241 47.6604 13.6117L47.7837 14.6441C48.0885 14.1171 48.4463 13.6998 48.8536 13.3955C49.265 13.0907 49.7258 12.9395 50.2349 12.9395C50.6559 12.9395 51.0036 13.0359 51.284 13.2288L51.0155 14.7673C50.9976 14.8673 50.9631 14.9358 50.9095 14.9793C50.8511 15.021 50.7791 15.0394 50.6838 15.0394C50.5999 15.0394 50.4862 15.0221 50.3445 14.984C50.198 14.943 50.0081 14.9257 49.7699 14.9257C49.3442 14.9257 48.9792 15.043 48.6732 15.277C48.3672 15.5127 48.1117 15.8581 47.8998 16.313V21.6215H45.8486Z" fill="white"/>
<path d="M54.4284 21.6232H52.3749V13.0996H54.4284V21.6232ZM54.7333 10.6144C54.7333 10.7924 54.6993 10.9585 54.6273 11.1145C54.5552 11.2681 54.4612 11.4027 54.3421 11.5212C54.2212 11.6367 54.0807 11.7296 53.9223 11.7992C53.761 11.8677 53.5889 11.9028 53.4049 11.9028C53.2281 11.9028 53.062 11.8677 52.9036 11.7992C52.7458 11.7296 52.6071 11.6367 52.4922 11.5212C52.3749 11.4027 52.285 11.2681 52.2142 11.1145C52.1445 10.9585 52.1094 10.7924 52.1094 10.6144C52.1094 10.4304 52.1445 10.2595 52.2142 10.1029C52.285 9.93862 52.3749 9.80048 52.4922 9.6826C52.6071 9.56649 52.7458 9.47361 52.9036 9.40395C53.062 9.33429 53.2281 9.30273 53.4049 9.30273C53.5889 9.30273 53.761 9.33429 53.9223 9.40395C54.0807 9.47361 54.2212 9.56649 54.3421 9.6826C54.4612 9.80048 54.5552 9.93862 54.6273 10.1029C54.6993 10.2595 54.7333 10.4304 54.7333 10.6144Z" fill="white"/>
<path d="M59.741 20.1113C60.1667 20.1113 60.5293 20.0244 60.827 19.8452C61.1271 19.6695 61.4087 19.4183 61.676 19.0878V15.2678C61.4432 14.9855 61.1902 14.7843 60.9145 14.6688C60.6412 14.5515 60.3447 14.4943 60.0268 14.4943C59.7178 14.4943 59.4385 14.5515 59.1873 14.6688C58.9342 14.7843 58.7223 14.9599 58.5454 15.1957C58.371 15.4345 58.2388 15.731 58.1429 16.0948C58.0512 16.4574 58.0012 16.8843 58.0012 17.3784C58.0012 17.8774 58.0429 18.2983 58.1221 18.6437C58.2037 18.9937 58.3186 19.273 58.4662 19.4915C58.6151 19.7112 58.7991 19.8696 59.0152 19.966C59.2319 20.0613 59.4736 20.1113 59.741 20.1113ZM62.4738 21.6147C62.2065 21.6147 62.0344 21.4926 61.9505 21.2402L61.7808 20.4185C61.604 20.6162 61.42 20.7996 61.2247 20.9591C61.0318 21.1181 60.8222 21.2568 60.6013 21.3729C60.3757 21.4926 60.1316 21.5801 59.8761 21.6462C59.6201 21.7082 59.3409 21.7379 59.0408 21.7379C58.5758 21.7379 58.1489 21.6439 57.7607 21.4509C57.3731 21.2568 57.0385 20.9728 56.7592 20.6067C56.48 20.2369 56.2639 19.7832 56.1126 19.2379C55.959 18.696 55.8828 18.0762 55.8828 17.3784C55.8828 16.7461 55.9685 16.1597 56.1406 15.619C56.3127 15.0749 56.558 14.6027 56.8801 14.2062C57.1986 13.8049 57.5874 13.4923 58.034 13.2678C58.4829 13.0469 58.986 12.9326 59.5481 12.9326C60.025 12.9326 60.4316 13.0094 60.7668 13.1601C61.1062 13.3143 61.4087 13.5167 61.676 13.7721V9.26855H63.7248V21.6147H62.4738Z" fill="white"/>
<path d="M78.5033 15.6175C78.5033 14.9584 78.4152 14.3659 78.2359 13.8432C78.0615 13.321 77.8078 12.8775 77.4798 12.5137C77.1541 12.1511 76.7576 11.8718 76.289 11.6813C75.8192 11.4866 75.2935 11.389 74.7053 11.389H72.3701V19.8472H74.7053C75.2935 19.8472 75.8192 19.7501 76.289 19.5572C76.7576 19.3619 77.1541 19.0827 77.4798 18.7201C77.8078 18.3605 78.0615 17.9139 78.2359 17.3911C78.4152 16.869 78.5033 16.2766 78.5033 15.6175ZM80.786 15.6175C80.786 16.4987 80.6384 17.3072 80.3478 18.0443C80.0543 18.7808 79.6405 19.4167 79.1112 19.9466C78.5789 20.4813 77.9382 20.8921 77.1892 21.1856C76.4402 21.4785 75.6126 21.6262 74.7053 21.6262H70.1201V9.6123H74.7053C75.6126 9.6123 76.4402 9.75996 77.1892 10.0553C77.9382 10.353 78.5789 10.765 79.1112 11.2937C79.6405 11.823 80.0543 12.4565 80.3478 13.1906C80.6384 13.9289 80.786 14.7369 80.786 15.6175Z" fill="white"/>
<path d="M85.3657 23.9775C85.305 24.1228 85.224 24.2312 85.1264 24.3068C85.0317 24.38 84.8817 24.4205 84.684 24.4205H83.1538L84.7495 21.0017L81.3027 13.1104H83.0955C83.2634 13.1104 83.389 13.1479 83.4771 13.2253C83.5676 13.3045 83.6331 13.392 83.6772 13.4932L85.4985 17.9116C85.5586 18.0575 85.6098 18.2075 85.6563 18.3594C85.6997 18.5165 85.7402 18.6714 85.7706 18.8285C85.817 18.6642 85.8635 18.5106 85.9183 18.3594C85.9706 18.2117 86.0236 18.0587 86.0879 17.9039L87.7997 13.4932C87.8426 13.3813 87.917 13.2919 88.0218 13.2163C88.1218 13.1473 88.2379 13.1104 88.3635 13.1104H90.0104L85.3657 23.9775Z" fill="white"/>
<path d="M90.959 21.6313V13.1064H92.2123C92.4802 13.1064 92.6571 13.2297 92.7356 13.4785L92.8803 14.1525C93.05 13.9775 93.231 13.8131 93.4221 13.6726C93.6139 13.5262 93.8151 13.4041 94.0288 13.2957C94.2432 13.1921 94.4688 13.1118 94.713 13.0576C94.9571 12.9992 95.2244 12.9736 95.5126 12.9736C95.9782 12.9736 96.3896 13.0522 96.7504 13.2094C97.1106 13.3678 97.4107 13.5887 97.6524 13.8739C97.8924 14.162 98.0757 14.5014 98.2002 14.8979C98.3246 15.2927 98.3877 15.7285 98.3877 16.2066V21.6313H96.336V16.2066C96.336 15.6845 96.2151 15.2808 95.9734 14.9956C95.7341 14.711 95.3709 14.5681 94.8898 14.5681C94.5349 14.5681 94.2009 14.6491 93.8931 14.8074C93.5823 14.97 93.2894 15.1891 93.0101 15.466V21.6313H90.959Z" fill="white"/>
<path d="M102.773 20.3414C102.982 20.3414 103.177 20.3241 103.354 20.2854C103.53 20.2461 103.698 20.189 103.856 20.111C104.015 20.0366 104.168 19.9413 104.315 19.8312C104.461 19.718 104.61 19.5876 104.756 19.4334V18.0075C104.159 18.0075 103.661 18.0438 103.258 18.1206C102.859 18.195 102.536 18.2903 102.291 18.4099C102.047 18.526 101.875 18.6624 101.772 18.819C101.67 18.975 101.619 19.1447 101.619 19.3274C101.619 19.6912 101.725 19.952 101.938 20.1086C102.15 20.2634 102.43 20.3414 102.773 20.3414ZM106.763 21.6215H105.839C105.642 21.6215 105.494 21.5929 105.382 21.5346C105.27 21.475 105.189 21.3577 105.131 21.1809L104.949 20.5742C104.733 20.7683 104.524 20.9404 104.315 21.0845C104.107 21.2333 103.891 21.3542 103.67 21.4578C103.448 21.5554 103.212 21.6287 102.965 21.6787C102.714 21.7287 102.437 21.7543 102.133 21.7543C101.772 21.7543 101.44 21.7055 101.138 21.6078C100.833 21.509 100.568 21.3661 100.349 21.1708C100.133 20.9749 99.9605 20.7344 99.8396 20.445C99.7164 20.1562 99.6562 19.8204 99.6562 19.4358C99.6562 19.1155 99.742 18.7958 99.9093 18.4796C100.081 18.1682 100.358 17.8842 100.755 17.6306C101.149 17.3781 101.67 17.1691 102.326 17.003C102.98 16.8363 103.788 16.7518 104.756 16.7518V16.2504C104.756 15.6747 104.636 15.2502 104.398 14.9733C104.156 14.6959 103.805 14.5583 103.345 14.5583C103.014 14.5583 102.737 14.5982 102.517 14.6756C102.293 14.7536 102.102 14.84 101.938 14.9364C101.772 15.0341 101.623 15.1198 101.486 15.199C101.347 15.2758 101.192 15.3175 101.028 15.3175C100.888 15.3175 100.77 15.277 100.673 15.2073C100.57 15.1365 100.491 15.0466 100.43 14.9412L100.056 14.285C101.038 13.3872 102.219 12.9395 103.603 12.9395C104.1 12.9395 104.547 13.0198 104.938 13.1842C105.331 13.3467 105.661 13.5735 105.929 13.8641C106.201 14.1582 106.406 14.5012 106.55 14.9096C106.691 15.3121 106.763 15.7551 106.763 16.2385V21.6215Z" fill="white"/>
<path d="M108.558 21.6313V13.1064H109.809C110.076 13.1064 110.249 13.2297 110.332 13.4785L110.467 14.1132C110.614 13.9435 110.772 13.7935 110.937 13.6542C111.1 13.5154 111.273 13.397 111.458 13.2957C111.644 13.1957 111.842 13.1189 112.056 13.0606C112.272 13.0028 112.504 12.9736 112.758 12.9736C113.295 12.9736 113.739 13.1189 114.086 13.4071C114.432 13.6982 114.691 14.0876 114.86 14.5681C114.996 14.2853 115.161 14.0424 115.362 13.8423C115.561 13.6375 115.779 13.4738 116.016 13.3469C116.256 13.2189 116.507 13.1266 116.777 13.0653C117.044 13.004 117.314 12.9736 117.586 12.9736C118.057 12.9736 118.477 13.0457 118.84 13.1898C119.205 13.3321 119.513 13.5446 119.763 13.8215C120.014 14.0971 120.203 14.4365 120.333 14.8342C120.463 15.2332 120.526 15.6898 120.526 16.2066V21.6313H118.477V16.2066C118.477 15.6612 118.356 15.2528 118.118 14.9783C117.879 14.7039 117.53 14.5681 117.07 14.5681C116.86 14.5681 116.665 14.605 116.486 14.6771C116.305 14.7467 116.147 14.8527 116.012 14.9879C115.877 15.1224 115.77 15.2933 115.693 15.4969C115.612 15.7041 115.577 15.9387 115.577 16.2066V21.6313H113.514V16.2066C113.514 15.6356 113.4 15.2183 113.172 14.9587C112.939 14.6973 112.602 14.5681 112.153 14.5681C111.858 14.5681 111.583 14.6425 111.325 14.789C111.068 14.9355 110.83 15.1367 110.605 15.3903V21.6313H108.558Z" fill="white"/>
<path d="M124.393 21.6244H122.34V13.0996H124.393V21.6244ZM124.699 10.6132C124.699 10.7936 124.665 10.9597 124.593 11.1121C124.521 11.2693 124.425 11.4039 124.307 11.5194C124.186 11.6379 124.049 11.7284 123.888 11.7968C123.725 11.8671 123.553 11.9016 123.372 11.9016C123.194 11.9016 123.026 11.8671 122.87 11.7968C122.714 11.7284 122.572 11.6379 122.458 11.5194C122.339 11.4039 122.247 11.2693 122.179 11.1121C122.109 10.9597 122.074 10.7936 122.074 10.6132C122.074 10.4316 122.109 10.2595 122.179 10.0994C122.247 9.93981 122.339 9.80168 122.458 9.68379C122.572 9.56768 122.714 9.4748 122.87 9.40514C123.026 9.33548 123.194 9.30273 123.372 9.30273C123.553 9.30273 123.725 9.33548 123.888 9.40514C124.049 9.4748 124.186 9.56768 124.307 9.68379C124.425 9.80168 124.521 9.93981 124.593 10.0994C124.665 10.2595 124.699 10.4316 124.699 10.6132Z" fill="white"/>
<path d="M132.394 14.9075C132.333 14.9879 132.273 15.048 132.215 15.0915C132.157 15.1367 132.071 15.1575 131.961 15.1575C131.855 15.1575 131.755 15.126 131.655 15.0623C131.557 14.998 131.436 14.9271 131.296 14.8467C131.159 14.7658 130.995 14.6949 130.806 14.6306C130.613 14.5657 130.375 14.533 130.092 14.533C129.731 14.533 129.415 14.6003 129.145 14.7295C128.875 14.8598 128.647 15.048 128.468 15.2903C128.287 15.5344 128.154 15.8309 128.066 16.1763C127.974 16.5216 127.931 16.9157 127.931 17.3516C127.931 17.8041 127.98 18.2137 128.077 18.5638C128.175 18.9204 128.313 19.2181 128.494 19.4593C128.679 19.701 128.903 19.882 129.161 20.0058C129.422 20.1291 129.715 20.1928 130.043 20.1928C130.371 20.1928 130.632 20.1535 130.836 20.0719C131.038 19.9916 131.208 19.9034 131.345 19.8058C131.485 19.7087 131.606 19.6218 131.708 19.5426C131.812 19.4599 131.924 19.4218 132.055 19.4218C132.217 19.4218 132.345 19.4849 132.428 19.6111L133.017 20.3589C132.789 20.6262 132.543 20.8477 132.278 21.0275C132.01 21.208 131.734 21.3532 131.45 21.458C131.164 21.5694 130.87 21.6474 130.566 21.6884C130.261 21.7337 129.959 21.7545 129.659 21.7545C129.133 21.7545 128.638 21.6569 128.173 21.458C127.705 21.2639 127.3 20.9775 126.954 20.6012C126.61 20.2232 126.333 19.7623 126.133 19.2181C125.931 18.6716 125.831 18.0494 125.831 17.3516C125.831 16.724 125.919 16.1459 126.101 15.6124C126.279 15.0748 126.544 14.6134 126.891 14.2228C127.243 13.834 127.675 13.5262 128.189 13.3065C128.706 13.0832 129.297 12.9736 129.968 12.9736C130.603 12.9736 131.162 13.0737 131.643 13.2797C132.122 13.4851 132.552 13.7792 132.933 14.162L132.394 14.9075Z" fill="white"/>
<path d="M139.442 14.7658C139.386 14.8551 139.328 14.9194 139.268 14.9551C139.205 14.9926 139.131 15.0087 139.035 15.0087C138.935 15.0087 138.828 14.9807 138.714 14.9271C138.6 14.8718 138.472 14.8075 138.319 14.739C138.17 14.6693 138 14.6074 137.809 14.5508C137.617 14.4973 137.393 14.4693 137.133 14.4693C136.728 14.4693 136.409 14.555 136.177 14.7265C135.946 14.8985 135.828 15.1218 135.828 15.4005C135.828 15.5821 135.883 15.7357 136.007 15.8601C136.123 15.9834 136.283 16.0935 136.481 16.1906C136.676 16.2822 136.9 16.3716 137.149 16.4406C137.395 16.5168 137.651 16.5984 137.914 16.6883C138.172 16.7776 138.428 16.8753 138.679 16.9902C138.926 17.1021 139.147 17.2474 139.347 17.4218C139.542 17.5963 139.7 17.8047 139.819 18.05C139.94 18.2941 140.001 18.587 140.001 18.9312C140.001 19.3408 139.921 19.7183 139.773 20.066C139.626 20.4113 139.407 20.709 139.116 20.9627C138.828 21.2139 138.472 21.4128 138.049 21.5521C137.626 21.692 137.14 21.7641 136.593 21.7641C136.3 21.7641 136.011 21.7385 135.733 21.6825C135.451 21.6313 135.184 21.5581 134.925 21.4676C134.667 21.3711 134.428 21.2604 134.211 21.1335C133.997 21.0055 133.803 20.8674 133.636 20.7162L134.108 19.935C134.169 19.8403 134.239 19.7695 134.323 19.7195C134.407 19.6683 134.512 19.6427 134.64 19.6427C134.765 19.6427 134.886 19.6814 134.997 19.7522C135.114 19.8254 135.246 19.9034 135.395 19.9862C135.546 20.0672 135.721 20.1464 135.923 20.2184C136.123 20.2905 136.379 20.3268 136.693 20.3268C136.935 20.3268 137.142 20.2976 137.319 20.2381C137.493 20.1815 137.637 20.1035 137.751 20.0082C137.865 19.9159 137.946 19.8058 138 19.6814C138.054 19.5569 138.079 19.4277 138.079 19.2961C138.079 19.0961 138.018 18.9324 137.9 18.8055C137.782 18.6775 137.623 18.5674 137.428 18.4721C137.23 18.3798 137.005 18.2953 136.753 18.222C136.5 18.1441 136.244 18.0637 135.979 17.9756C135.718 17.888 135.458 17.7809 135.209 17.6636C134.956 17.5427 134.73 17.3927 134.535 17.2099C134.339 17.0277 134.182 16.8032 134.064 16.5371C133.941 16.2703 133.882 15.9518 133.882 15.5749C133.882 15.2248 133.952 14.8926 134.091 14.5764C134.228 14.2609 134.432 13.9852 134.702 13.7494C134.969 13.5143 135.305 13.3261 135.707 13.1868C136.109 13.0421 136.572 12.9736 137.1 12.9736C137.686 12.9736 138.219 13.0689 138.703 13.2636C139.181 13.4577 139.584 13.7131 139.907 14.0287L139.442 14.7658Z" fill="white"/>
<path d="M25.254 13.3901C23.9067 7.00924 16.7857 1.00527 11.9017 0.452148C11.5052 0.704001 11.1753 1.01956 10.9092 1.38751C13.7546 1.65127 16.2386 3.55416 19.0923 6.60973C21.3095 8.98535 22.7915 12.7804 23.1559 16.7767C23.3017 18.3587 23.2708 19.9716 23.0463 21.5422C25.3338 19.0362 25.8435 16.1771 25.254 13.3901Z" fill="#FB8C00"/>
<path d="M23.1594 16.7812C23.3058 18.3626 23.2749 19.9755 23.0498 21.5468C20.4503 24.4773 11.4789 25.9271 5.78392 25.5127V25.5104C4.92357 24.2862 4.48536 22.9347 4.37402 21.5188C11.6105 22.8716 19.3584 20.6841 23.1594 16.7812Z" fill="#FF5722"/>
<path d="M17.7345 7.62779C19.4045 10.2856 19.0693 15.0762 17.2099 17.84L16.9724 17.7823C15.7262 17.2524 14.461 16.0253 13.3571 14.4498C17.0849 9.92781 15.02 6.49297 12.4116 5.78921C11.6317 5.57666 10.8058 5.60881 10.0693 5.92913C12.5742 4.73596 15.8887 4.89135 17.7345 7.62779Z" fill="#1E88E5"/>
<path d="M10.0734 5.90711C10.8093 5.58679 11.6357 5.55404 12.4151 5.76719C11.7602 6.38045 11.0743 7.08659 10.3931 7.86596C10.2306 7.20448 10.1157 6.55133 10.0508 5.91783V5.91604C10.0603 5.91247 10.0651 5.9089 10.0734 5.90711Z" fill="#9DA619"/>
<path d="M16.9669 17.7684C15.7207 17.2385 14.4555 16.0114 13.3516 14.4359C12.0305 12.5539 10.9379 10.1681 10.3836 7.87468C10.221 7.2126 10.1067 6.56005 10.0418 5.92596V5.92417C9.85845 4.13441 10.0948 2.51732 10.9135 1.3944C11.1802 1.02645 11.5095 0.712076 11.906 0.460224V0.459033C10.4294 0.292918 9.15588 0.622767 8.31161 1.59505H8.30804C7.6668 2.33036 7.26788 3.43125 7.21251 4.96082C7.10891 5.74376 7.03092 6.86013 7.01722 8.13725C7.00532 9.3852 7.0589 10.7826 7.2137 12.1806C7.80195 17.476 9.86857 22.734 15.5433 19.4539C16.1857 19.0806 16.7436 18.515 17.2044 17.8267L16.9669 17.7684Z" fill="#4FC3F7"/>
<path d="M4.37765 21.5206C4.14009 18.4847 5.40531 15.1546 7.2165 12.18C7.0617 10.7815 7.00811 9.38407 7.02002 8.13672C4.04483 10.897 0.470072 16.2311 0.0425774 20.2542C-0.180696 22.3512 0.451614 24.0898 2.47477 24.9209C3.32142 25.2228 4.46577 25.4181 5.78755 25.5145V25.5122C4.92661 24.288 4.48899 22.9365 4.37765 21.5206Z" fill="#C0CA33"/>
</svg>
