<svg width="175" height="160" viewBox="0 0 175 160" fill="none" xmlns="http://www.w3.org/2000/svg">
<path d="M113.207 51.0061V13H172.793V51.0061H113.207Z" fill="#FF9201"/>
<path d="M172.793 51.0059L147.906 31.7319C144.865 29.6409 140.838 29.6299 137.785 31.7021C129.234 37.5074 113.207 51.0059 113.207 51.0059H172.793Z" fill="#BCDCFF"/>
<path d="M138.761 31.1441H138.586L113.206 13.0063L113.207 51.0062C113.207 51.0062 129.234 37.5077 137.784 31.7025C138.099 31.4895 138.429 31.3129 138.761 31.1441Z" fill="#A7D0FE"/>
<path d="M147.414 31.1441H146.892C147.237 31.3207 147.579 31.5083 147.905 31.7323L172.793 51.0062V13.0063L147.414 31.1441Z" fill="#A7D0FE"/>
<path d="M172.793 13.0063L147.906 32.2803C144.865 34.3713 140.838 34.3823 137.785 32.3101C129.234 26.5048 113.207 13.0063 113.207 13.0063H172.793Z" fill="white"/>
<g clip-path="url(#clip0)">
<path d="M148.862 62.7387L103.274 18.1732C97.5825 12.6076 88.417 12.6076 82.7253 18.1732L37.1377 62.7387V134H148.862V62.7387Z" fill="#FF9201"/>
<rect x="53" y="30" width="80" height="104" rx="4" fill="white"/>
<g clip-path="url(#clip1)">
<path fill-rule="evenodd" clip-rule="evenodd" d="M73 65.5C77.1421 65.5 80.5 62.1421 80.5 58C80.5 53.8579 77.1421 50.5 73 50.5C68.8579 50.5 65.5 53.8579 65.5 58C65.5 62.1421 68.8579 65.5 73 65.5ZM73 70C79.6274 70 85 64.6274 85 58C85 51.3726 79.6274 46 73 46C66.3726 46 61 51.3726 61 58C61 64.6274 66.3726 70 73 70Z" fill="#2EC5CE"/>
<rect x="89" y="51" width="36" height="6" rx="0.5" fill="#2EC5CE"/>
<rect opacity="0.4" x="89" y="60" width="16" height="5" rx="0.5" fill="#2EC5CE"/>
</g>
<path d="M148.862 134L102.198 97.8611C96.4963 93.9404 88.9467 93.9197 83.2218 97.8052C67.1874 108.69 37.1377 134 37.1377 134H148.862Z" fill="#FFDC81"/>
<path d="M85.0508 96.7587H84.7239L37.1377 63.6553V134C37.1377 134 67.1874 108.69 83.2198 97.8056C83.8094 97.4063 84.428 97.0753 85.0508 96.7587Z" fill="#FFCA00"/>
<path d="M101.276 96.7587H100.298C100.945 97.0898 101.587 97.4415 102.197 97.8615L148.863 134V63.6553L101.276 96.7587Z" fill="#FFB800"/>
</g>
<path d="M2.20703 147.006V109H61.7932V147.006H2.20703Z" fill="#FF9201"/>
<path d="M61.7932 147.006L36.9061 127.732C33.865 125.641 29.8385 125.63 26.7852 127.702C18.2335 133.507 2.20703 147.006 2.20703 147.006H61.7932Z" fill="#BCDCFF"/>
<path d="M27.7607 127.144H27.5863L2.20605 109.006L2.20703 147.006C2.20703 147.006 18.2335 133.507 26.7841 127.702C27.0986 127.489 27.4286 127.313 27.7607 127.144Z" fill="#A7D0FE"/>
<path d="M36.4135 127.144H35.8916C36.237 127.32 36.579 127.508 36.9046 127.732L61.7928 147.006V109.006L36.4135 127.144Z" fill="#A7D0FE"/>
<path d="M61.7932 109.006L36.9061 128.28C33.865 130.371 29.8385 130.382 26.7852 128.31C18.2335 122.505 2.20703 109.006 2.20703 109.006H61.7932Z" fill="white"/>
<circle cx="145" cy="122" r="24" fill="white"/>
<g opacity="0.4">
<path d="M151 114.706C151 118.252 148.122 121.126 144.571 121.126C141.021 121.126 138.143 118.252 138.143 114.706C138.143 111.16 141.021 108.286 144.571 108.286C148.122 108.286 151 111.16 151 114.706Z" fill="#2EC5CE"/>
<path d="M157 135.679C157 135.679 148.913 135.759 143.714 135.679C139.517 135.614 133 135.679 133 135.679C133 135.679 134.714 122.838 145 122.838C155.286 122.838 157 135.679 157 135.679Z" fill="#2EC5CE"/>
</g>
<circle cx="163" cy="104" r="10" fill="#2EC5CE"/>
<path fill-rule="evenodd" clip-rule="evenodd" d="M163 99.3335C163.322 99.3335 163.583 99.5947 163.583 99.9168V103.417H167.083C167.405 103.417 167.666 103.678 167.666 104C167.666 104.322 167.405 104.583 167.083 104.583H163.583V108.083C163.583 108.406 163.322 108.667 163 108.667C162.678 108.667 162.416 108.406 162.416 108.083V104.583H158.916C158.594 104.583 158.333 104.322 158.333 104C158.333 103.678 158.594 103.417 158.916 103.417H162.416V99.9168C162.416 99.5947 162.678 99.3335 163 99.3335Z" fill="white"/>
<defs>
<clipPath id="clip0">
<rect width="120" height="120" fill="white" transform="translate(33 14)"/>
</clipPath>
<clipPath id="clip1">
<rect width="64" height="24" fill="white" transform="translate(61 46)"/>
</clipPath>
</defs>
</svg>
