<svg width="103" height="32" viewBox="0 0 103 32" fill="none" xmlns="http://www.w3.org/2000/svg">
<g clip-path="url(#clip0)">
<path fill-rule="evenodd" clip-rule="evenodd" d="M63.8991 25.0247C57.9136 29.573 49.238 31.9997 41.7684 31.9997C31.2949 31.9997 21.8661 28.006 14.7328 21.3638C14.1724 20.8415 14.6745 20.1297 15.347 20.5364C23.0453 25.1541 32.5638 27.9321 42.3961 27.9321C49.0273 27.9321 56.322 26.5176 63.0293 23.5825C64.0426 23.1388 64.89 24.2666 63.8991 25.0247Z" fill="#FF9900"/>
<path fill-rule="evenodd" clip-rule="evenodd" d="M66.3879 22.09C65.6257 21.0824 61.3305 21.6139 59.4026 21.8497C58.8153 21.9236 58.7256 21.3967 59.2547 21.0177C62.6756 18.5355 68.2889 19.2519 68.9435 20.084C69.5981 20.9206 68.7732 26.7215 65.5585 29.4903C65.0653 29.9155 64.5945 29.689 64.8142 29.1251C65.5361 27.267 67.1546 23.1023 66.3879 22.09Z" fill="#FF9900"/>
<path fill-rule="evenodd" clip-rule="evenodd" d="M59.5367 3.49464V1.08182C59.5367 0.71666 59.8057 0.47168 60.1286 0.47168H70.6066C70.9428 0.47168 71.2118 0.721283 71.2118 1.08182V3.14797C71.2074 3.49464 70.9249 3.94763 70.4227 4.66408L64.9932 12.656C67.0108 12.6051 69.1405 12.9148 70.9697 13.978C71.3822 14.2183 71.4943 14.5696 71.5257 14.9163V17.4909C71.5257 17.8422 71.1491 18.2536 70.7545 18.0409C67.5309 16.2983 63.2491 16.1088 59.6847 18.0594C59.3215 18.2628 58.9404 17.856 58.9404 17.5047V15.0596C58.9404 14.6667 58.9449 13.9964 59.326 13.4002L65.6164 4.10016H60.142C59.8057 4.10016 59.5367 3.85518 59.5367 3.49464Z" fill="black"/>
<path fill-rule="evenodd" clip-rule="evenodd" d="M21.3148 18.5495H18.127C17.8221 18.5264 17.58 18.2906 17.5576 17.9902V1.12354C17.5576 0.786119 17.8311 0.518025 18.1719 0.518025H21.1444C21.4538 0.531882 21.7004 0.776871 21.7228 1.08194V3.28677H21.7811C22.5567 1.1559 24.0139 0.162109 25.9777 0.162109C27.9728 0.162109 29.2193 1.1559 30.116 3.28677C30.8871 1.1559 32.6402 0.162109 34.5188 0.162109C35.8549 0.162109 37.3165 0.730648 38.2087 2.00639C39.2175 3.42543 39.0113 5.48696 39.0113 7.29427L39.0068 17.9394C39.0068 18.2768 38.7333 18.5495 38.3926 18.5495H35.2093C34.8909 18.5264 34.6354 18.2629 34.6354 17.9394V8.99989C34.6354 8.28806 34.6981 6.51311 34.5457 5.83825C34.3081 4.7058 33.5952 4.38686 32.6716 4.38686C31.9004 4.38686 31.0934 4.91842 30.7661 5.76892C30.4388 6.61942 30.4702 8.04307 30.4702 8.99989V17.9394C30.4702 18.2768 30.1967 18.5495 29.8559 18.5495H26.6726C26.3498 18.5264 26.0987 18.2629 26.0987 17.9394L26.0943 8.99989C26.0943 7.11862 26.3946 4.34988 24.1305 4.34988C21.8394 4.34988 21.9291 7.04929 21.9291 8.99989V17.9394C21.9291 18.2768 21.6556 18.5495 21.3148 18.5495" fill="black"/>
<path fill-rule="evenodd" clip-rule="evenodd" d="M80.2322 0.162109C84.9624 0.162109 87.5225 4.34989 87.5225 9.67474C87.5225 14.8193 84.6934 18.9008 80.2322 18.9008C75.5873 18.9008 73.0586 14.713 73.0586 9.49447C73.0586 4.24357 75.6187 0.162109 80.2322 0.162109ZM80.2591 3.6057C77.9098 3.6057 77.7618 6.906 77.7618 8.96291C77.7618 11.0244 77.7304 15.4248 80.2322 15.4248C82.7027 15.4248 82.8192 11.8749 82.8192 9.71172C82.8192 8.28806 82.761 6.58707 82.344 5.23736C81.9853 4.06331 81.2724 3.6057 80.2591 3.6057Z" fill="black"/>
<path fill-rule="evenodd" clip-rule="evenodd" d="M93.656 18.5495H90.4817C90.1634 18.5264 89.9078 18.2629 89.9078 17.9394L89.9033 1.06807C89.9302 0.758382 90.1947 0.518025 90.5176 0.518025H93.4722C93.7502 0.531882 93.9788 0.726027 94.0416 0.989497V3.56872H94.0999C94.9921 1.26221 96.243 0.162109 98.4444 0.162109C99.8747 0.162109 101.269 0.693671 102.166 2.14968C103 3.49939 103 5.76892 103 7.40058V18.0179C102.964 18.3138 102.699 18.5495 102.385 18.5495H99.1887C98.8973 18.5264 98.6552 18.3045 98.6238 18.0179V8.8566C98.6238 7.01231 98.83 4.31291 96.6286 4.31291C95.853 4.31291 95.1401 4.84909 94.7859 5.66261C94.3375 6.69338 94.2792 7.71952 94.2792 8.8566V17.9394C94.2748 18.2768 93.9968 18.5495 93.656 18.5495" fill="black"/>
<path fill-rule="evenodd" clip-rule="evenodd" d="M51.184 10.4926C51.184 11.7729 51.2154 12.8407 50.5877 13.9777C50.0811 14.9022 49.274 15.4707 48.3818 15.4707C47.1578 15.4707 46.4404 14.5093 46.4404 13.0903C46.4404 10.2892 48.875 9.78073 51.184 9.78073V10.4926ZM54.3987 18.5029C54.188 18.6971 53.8831 18.7109 53.6455 18.5815C52.5873 17.6756 52.3946 17.2549 51.8162 16.3906C50.0676 18.2302 48.8257 18.7803 46.5615 18.7803C43.8759 18.7803 41.791 17.0747 41.791 13.6588C41.791 10.9918 43.1899 9.17521 45.1895 8.28773C46.9202 7.50194 49.3368 7.36328 51.184 7.14603V6.72078C51.184 5.93962 51.2423 5.01516 50.7939 4.34031C50.4084 3.73479 49.6641 3.48519 49.005 3.48519C47.79 3.48519 46.7094 4.12769 46.4449 5.4589C46.3911 5.75473 46.1804 6.04593 45.889 6.0598L42.7998 5.71775C42.5398 5.65766 42.2483 5.44041 42.3246 5.02903C43.033 1.16482 46.4225 0 49.4534 0C51.0047 0 53.0312 0.42525 54.2552 1.63628C55.8065 3.12928 55.6586 5.12148 55.6586 7.28932V12.4108C55.6586 13.95 56.2773 14.6249 56.8601 15.4569C57.0619 15.7527 57.1067 16.1086 56.8467 16.3305C56.1966 16.8898 55.0398 17.9298 54.4032 18.5122L54.3987 18.5029" fill="black"/>
<path fill-rule="evenodd" clip-rule="evenodd" d="M9.39298 10.4926C9.39298 11.7729 9.42437 12.8407 8.79667 13.9777C8.29003 14.9022 7.48748 15.4707 6.59078 15.4707C5.36678 15.4707 4.6539 14.5093 4.6539 13.0903C4.6539 10.2892 7.08845 9.78072 9.39298 9.78072V10.4926ZM12.6077 18.5029C12.3969 18.6971 12.0921 18.7109 11.8544 18.5815C10.7963 17.6756 10.608 17.2549 10.0252 16.3906C8.27658 18.2302 7.03913 18.7803 4.77047 18.7803C2.08932 18.7803 0 17.0747 0 13.6588C0 10.9918 1.40334 9.17521 3.39851 8.28773C5.12915 7.50194 7.54577 7.36328 9.39298 7.14603V6.72078C9.39298 5.93962 9.45127 5.01516 9.0074 4.34031C8.61733 3.73479 7.87307 3.48519 7.21847 3.48519C6.00344 3.48519 4.91843 4.12769 4.6539 5.4589C4.60009 5.75473 4.38937 6.04593 4.10242 6.0598L1.00879 5.71775C0.748748 5.65766 0.461802 5.44041 0.533539 5.02903C1.24642 1.16482 4.63148 0 7.66234 0C9.21364 0 11.2402 0.42525 12.4642 1.63628C14.0155 3.12928 13.8675 5.12147 13.8675 7.28932V12.4108C13.8675 13.95 14.4863 14.6249 15.0691 15.4569C15.2754 15.7527 15.3202 16.1086 15.0602 16.3305C14.41 16.8898 13.2533 17.9298 12.6166 18.5122L12.6077 18.5029" fill="black"/>
</g>
<defs>
<clipPath id="clip0">
<rect width="103" height="32" fill="white"/>
</clipPath>
</defs>
</svg>
