<svg width="95" height="32" viewBox="0 0 95 32" fill="none" xmlns="http://www.w3.org/2000/svg">
<path d="M40.427 16.4101C40.427 20.8518 36.9379 24.1249 32.6559 24.1249C28.3739 24.1249 24.8848 20.8518 24.8848 16.4101C24.8848 11.9371 28.3739 8.69531 32.6559 8.69531C36.9379 8.69531 40.427 11.9371 40.427 16.4101ZM37.0252 16.4101C37.0252 13.6344 35.003 11.7353 32.6559 11.7353C30.3088 11.7353 28.2866 13.6344 28.2866 16.4101C28.2866 19.1579 30.3088 21.0849 32.6559 21.0849C35.003 21.0849 37.0252 19.1544 37.0252 16.4101Z" fill="#EA4335"/>
<path d="M57.1917 16.4101C57.1917 20.8518 53.7025 24.1249 49.4206 24.1249C45.1386 24.1249 41.6494 20.8518 41.6494 16.4101C41.6494 11.9405 45.1386 8.69531 49.4206 8.69531C53.7025 8.69531 57.1917 11.9371 57.1917 16.4101ZM53.7898 16.4101C53.7898 13.6344 51.7676 11.7353 49.4206 11.7353C47.0735 11.7353 45.0513 13.6344 45.0513 16.4101C45.0513 19.1579 47.0735 21.0849 49.4206 21.0849C51.7676 21.0849 53.7898 19.1544 53.7898 16.4101Z" fill="#FBBC05"/>
<path d="M73.258 9.1614V23.0118C73.258 28.7092 69.8841 31.0362 65.8955 31.0362C62.1409 31.0362 59.8811 28.5353 59.0289 26.4901L61.9907 25.2623C62.5181 26.5179 63.8104 27.9997 65.892 27.9997C68.4451 27.9997 70.0273 26.431 70.0273 23.4779V22.3684H69.9085C69.1471 23.304 67.6802 24.1214 65.8291 24.1214C61.9558 24.1214 58.4072 20.7614 58.4072 16.4379C58.4072 12.0831 61.9558 8.69531 65.8291 8.69531C67.6767 8.69531 69.1436 9.5127 69.9085 10.4205H70.0273V9.16488H73.258V9.1614ZM70.2683 16.4379C70.2683 13.7214 68.4486 11.7353 66.133 11.7353C63.7859 11.7353 61.8195 13.7214 61.8195 16.4379C61.8195 19.1266 63.7859 21.0849 66.133 21.0849C68.4486 21.0849 70.2683 19.1266 70.2683 16.4379Z" fill="#4285F4"/>
<path d="M78.5846 1.04395V23.6526H75.2666V1.04395H78.5846Z" fill="#34A853"/>
<path d="M91.514 18.9498L94.1544 20.7028C93.3022 21.9585 91.2485 24.1219 87.7 24.1219C83.2993 24.1219 80.0127 20.7341 80.0127 16.4072C80.0127 11.8193 83.3272 8.69238 87.3193 8.69238C91.3394 8.69238 93.3057 11.8785 93.9484 13.6002L94.3011 14.4767L83.9454 18.748C84.7383 20.2959 85.9712 21.0854 87.7 21.0854C89.4324 21.0854 90.6338 20.2367 91.514 18.9498ZM83.3866 16.1741L90.309 13.3115C89.9283 12.348 88.7827 11.6767 87.4346 11.6767C85.7057 11.6767 83.2993 13.1967 83.3866 16.1741Z" fill="#EA4335"/>
<path d="M12.3258 14.4031V11.13H23.401C23.5092 11.7005 23.5651 12.3753 23.5651 13.1057C23.5651 15.5613 22.8911 18.5979 20.7186 20.7613C18.6056 22.9527 15.9058 24.1213 12.3293 24.1213C5.70024 24.1213 0.125977 18.744 0.125977 12.1422C0.125977 5.54048 5.70024 0.163086 12.3293 0.163086C15.9966 0.163086 18.6091 1.59613 20.5719 3.46396L18.2528 5.77352C16.8453 4.45874 14.9383 3.43613 12.3258 3.43613C7.48498 3.43613 3.69895 7.32135 3.69895 12.1422C3.69895 16.9631 7.48498 20.8483 12.3258 20.8483C15.4657 20.8483 17.2539 19.5927 18.3995 18.4518C19.3286 17.5266 19.9398 16.2048 20.1808 14.3996L12.3258 14.4031Z" fill="#4285F4"/>
</svg>
