<svg width="122" height="26" viewBox="0 0 122 26" fill="none" xmlns="http://www.w3.org/2000/svg">
<g clip-path="url(#clip0)">
<path d="M43.0631 14.9748L42.336 17.0306H42.2754C42.1542 16.5671 41.932 15.8616 41.5684 15.0151L37.6701 5.23993H33.8525V20.8198H36.3774V11.2058C36.3774 10.6012 36.3774 9.9159 36.3572 9.06939C36.337 8.64613 36.2966 8.32365 36.2764 8.08179H36.337C36.4582 8.68644 36.5996 9.12985 36.7006 9.41202L41.3866 20.7795H43.1641L47.8098 9.31125C47.9108 9.04923 48.0118 8.5252 48.1128 8.08179H48.1734C48.1128 9.23063 48.0724 10.2585 48.0522 10.8833V20.7593H50.7386V5.19962H47.0625L43.0631 14.9748ZM53.2837 9.59342H55.9095V20.7593H53.2837V9.59342ZM54.6168 4.87714C54.1724 4.87714 53.8088 5.03838 53.5058 5.32055C53.2029 5.60272 53.0413 5.96551 53.0413 6.40892C53.0413 6.83218 53.2029 7.19497 53.5058 7.47714C53.8088 7.75931 54.1724 7.90039 54.6168 7.90039C55.0611 7.90039 55.4449 7.73915 55.7277 7.47714C56.0307 7.19497 56.1923 6.83218 56.1923 6.40892C56.1923 5.98566 56.0307 5.62287 55.7277 5.32055C55.4651 5.03838 55.0813 4.87714 54.6168 4.87714ZM65.2211 9.49264C64.7363 9.39187 64.2313 9.3314 63.7466 9.3314C62.5549 9.3314 61.4641 9.59342 60.5552 10.1174C59.6462 10.6415 58.9191 11.3671 58.4545 12.274C57.9698 13.2012 57.7274 14.2694 57.7274 15.4988C57.7274 16.5671 57.9698 17.5143 58.4343 18.381C58.8989 19.2275 59.5453 19.9128 60.4138 20.3764C61.2419 20.8399 62.2115 21.0818 63.3022 21.0818C64.5545 21.0818 65.6251 20.8198 66.4734 20.3361L66.4936 20.3159V17.8973L66.3926 17.9779C66.0088 18.2601 65.5645 18.5019 65.1201 18.643C64.6555 18.8043 64.2313 18.8849 63.8678 18.8849C62.8174 18.8849 61.9893 18.5826 61.4035 17.9174C60.7976 17.2725 60.4946 16.3857 60.4946 15.2771C60.4946 14.1283 60.7976 13.2213 61.4237 12.5562C62.0499 11.8911 62.878 11.5485 63.888 11.5485C64.7363 11.5485 65.6049 11.8306 66.3926 12.395L66.4936 12.4756V9.9159L66.4734 9.89574C66.13 9.75466 65.7462 9.59342 65.2211 9.49264ZM73.8863 9.41202C73.2399 9.41202 72.634 9.61357 72.1088 10.0368C71.6645 10.3996 71.3615 10.9236 71.0989 11.5485H71.0787V9.59342H68.4529V20.7593H71.0787V15.0554C71.0787 14.088 71.2807 13.2818 71.7251 12.6973C72.1694 12.0926 72.735 11.7903 73.4217 11.7903C73.6641 11.7903 73.9065 11.8508 74.2095 11.8911C74.4923 11.9717 74.6943 12.0523 74.8356 12.1531L74.9366 12.2337V9.61357L74.876 9.59342C74.6943 9.47249 74.3307 9.41202 73.8863 9.41202ZM81.0366 9.35156C79.1986 9.35156 77.7241 9.89574 76.6939 10.964C75.6436 12.0322 75.1386 13.5035 75.1386 15.3578C75.1386 17.0911 75.6638 18.5019 76.6737 19.5299C77.6837 20.5376 79.0572 21.0616 80.7741 21.0616C82.5717 21.0616 84.0058 20.5174 85.036 19.4291C86.0863 18.3407 86.5913 16.8895 86.5913 15.0957C86.5913 13.3221 86.1065 11.9112 85.1168 10.8833C84.1674 9.85543 82.7737 9.35156 81.0366 9.35156ZM83.1373 17.9376C82.6525 18.5624 81.885 18.8647 80.9356 18.8647C79.9863 18.8647 79.2188 18.5624 78.6734 17.8973C78.128 17.2725 77.8654 16.3655 77.8654 15.2167C77.8654 14.0275 78.1482 13.1205 78.6734 12.4756C79.2188 11.8306 79.9661 11.5081 80.9154 11.5081C81.8446 11.5081 82.5717 11.8105 83.0969 12.4353C83.6221 13.0601 83.9049 13.9671 83.9049 15.1562C83.8645 16.3655 83.6423 17.3128 83.1373 17.9376ZM92.4489 14.2291C91.6207 13.8864 91.0956 13.6244 90.8532 13.4027C90.6512 13.2012 90.5502 12.919 90.5502 12.5562C90.5502 12.2539 90.6714 11.9516 90.9744 11.75C91.2774 11.5485 91.6207 11.4477 92.1257 11.4477C92.5701 11.4477 93.0346 11.5283 93.479 11.6492C93.9234 11.7702 94.3274 11.9516 94.6505 12.1934L94.7515 12.274V9.81512L94.6909 9.79497C94.388 9.67404 93.984 9.55311 93.4992 9.45233C93.0145 9.37171 92.5701 9.3314 92.2065 9.3314C90.9542 9.3314 89.9241 9.63373 89.1161 10.2988C88.3082 10.9236 87.9244 11.7702 87.9244 12.7578C87.9244 13.2818 88.0052 13.7454 88.187 14.1283C88.3688 14.5112 88.6313 14.874 88.9949 15.1764C89.3585 15.4585 89.8837 15.781 90.6108 16.0833C91.2168 16.3454 91.6813 16.5469 91.9641 16.7081C92.2469 16.8694 92.4287 17.0508 92.5701 17.1919C92.6711 17.3531 92.7317 17.5547 92.7317 17.8167C92.7317 18.5624 92.1661 18.9252 91.0148 18.9252C90.5704 18.9252 90.1058 18.8446 89.5605 18.6632C89.0151 18.4818 88.5101 18.2198 88.086 17.9174L87.985 17.8368V20.3965L88.0456 20.4167C88.4294 20.5981 88.8939 20.719 89.4595 20.8601C90.025 20.9609 90.53 21.0415 90.9744 21.0415C92.3277 21.0415 93.4386 20.7392 94.2264 20.074C95.0343 19.4291 95.4585 18.6027 95.4585 17.5345C95.4585 16.7888 95.2565 16.1237 94.8121 15.6198C94.2264 15.1361 93.4992 14.6322 92.4489 14.2291ZM102.387 9.35156C100.549 9.35156 99.0741 9.89574 98.0439 10.964C97.0138 12.0322 96.4886 13.5035 96.4886 15.3578C96.4886 17.0911 97.0138 18.5019 98.0237 19.5299C99.0337 20.5376 100.407 21.0616 102.124 21.0616C103.922 21.0616 105.356 20.5174 106.386 19.4291C107.436 18.3407 107.941 16.8895 107.941 15.0957C107.941 13.3221 107.456 11.9112 106.467 10.8833C105.517 9.85543 104.124 9.35156 102.387 9.35156ZM104.467 17.9376C103.982 18.5624 103.215 18.8647 102.265 18.8647C101.296 18.8647 100.549 18.5624 100.003 17.8973C99.4578 17.2725 99.1952 16.3655 99.1952 15.2167C99.1952 14.0275 99.478 13.1205 100.003 12.4756C100.549 11.8306 101.296 11.5081 102.245 11.5081C103.154 11.5081 103.902 11.8105 104.427 12.4353C104.952 13.0601 105.235 13.9671 105.235 15.1562C105.235 16.3655 104.972 17.3128 104.467 17.9376ZM121.979 11.75V9.59342H119.333V6.28799L119.253 6.30815L116.748 7.05388L116.687 7.07404V9.59342H112.728V8.18256C112.728 7.5376 112.89 7.03373 113.173 6.71125C113.456 6.38877 113.88 6.22753 114.405 6.22753C114.768 6.22753 115.152 6.30815 115.576 6.48954L115.677 6.55001V4.27249L115.617 4.25233C115.253 4.1314 114.768 4.05078 114.142 4.05078C113.355 4.05078 112.668 4.23218 112.042 4.5345C111.415 4.87714 110.951 5.3407 110.607 5.96551C110.264 6.57016 110.082 7.25543 110.082 8.04148V9.59342H108.244V11.7299H110.082V20.7593H112.728V11.75H116.687V17.4942C116.687 19.8523 117.798 21.0415 120.02 21.0415C120.384 21.0415 120.767 20.981 121.131 20.9205C121.515 20.8399 121.798 20.7392 121.959 20.6585L121.979 20.6384V18.4818L121.878 18.5624C121.717 18.6632 121.575 18.7438 121.333 18.8043C121.131 18.8647 120.949 18.8849 120.808 18.8849C120.283 18.8849 119.919 18.764 119.657 18.4616C119.414 18.1795 119.293 17.7159 119.293 17.0306V11.75H121.979Z" fill="#737373"/>
<path d="M0 0H12.3818V12.355H0V0Z" fill="#F25022"/>
<path d="M13.6748 0H26.0566V12.355H13.6748V0Z" fill="#7FBA00"/>
<path d="M0 13.6445H12.3818V25.9996H0V13.6445Z" fill="#00A4EF"/>
<path d="M13.6748 13.6445H26.0566V25.9996H13.6748V13.6445Z" fill="#FFB900"/>
</g>
<defs>
<clipPath id="clip0">
<rect width="122" height="26" fill="white"/>
</clipPath>
</defs>
</svg>
