<svg width="98" height="34" viewBox="0 0 98 34" fill="none" xmlns="http://www.w3.org/2000/svg">
<path fill-rule="evenodd" clip-rule="evenodd" d="M86.3764 15.8408L80.1392 26.6751L74.8177 26.6963L86.3764 6.30378L97.8919 26.6963H92.4861L86.3764 15.8397V15.8408ZM69.5815 21.9799H75.5416L72.7744 26.6963H65.0061L65.0271 20.9535V6.42916H69.6036L69.5826 21.9799H69.5815ZM53.2355 6.43022C58.9185 6.45147 63.516 10.9777 63.495 16.5728C63.4739 22.1478 58.8763 26.6751 53.1923 26.6751C47.5304 26.6538 42.9329 22.1276 42.9329 16.5314C42.954 10.9565 47.5515 6.43022 53.2355 6.43022ZM53.2145 21.9597C56.2577 21.9597 58.7046 19.5489 58.7046 16.5728C58.7267 13.5978 56.2577 11.1658 53.2355 11.1658C50.2123 11.1445 47.7433 13.5766 47.7433 16.5527C47.7222 19.5277 50.1912 21.9597 53.2134 21.9597H53.2145ZM34.4617 14.9632C34.3984 14.1238 34.1845 13.0135 33.8652 11.9457C33.2082 9.74004 32.066 7.71235 30.5238 6.01372C29.7145 5.13397 28.7998 4.31585 27.4362 3.35216C26.3968 2.83493 25.3748 2.28283 24.3719 1.69678C23.7122 1.3196 22.924 0.857409 21.8818 0.522722C20.6461 0.228624 19.383 0.0672867 18.1136 0.0414094C16.8807 -0.00109055 15.6446 0.105159 14.4528 0.334659C13.1967 0.543972 12.1535 0.878659 10.7699 1.21441C7.64024 2.57653 5.21447 4.63035 3.12802 7.35566C-4.15137 17.6035 2.42622 31.96 14.5803 33.6568C16.5814 33.9298 18.5825 33.8247 20.4761 33.3848L21.8176 33.0288C21.8597 33.0076 21.924 32.9863 21.9662 32.9863L23.4994 32.3998C23.5837 32.3573 23.648 32.3361 23.7333 32.2947L24.3719 32.0014C25.5971 31.3917 26.7473 30.6393 27.7987 29.7595C26.8416 30.6364 25.8007 31.4155 24.6912 32.0853L24.7544 32.1278C24.9683 32.0641 25.1591 32.0014 25.3719 31.96C25.3719 31.96 25.3719 32.2947 25.3298 32.232C24.9894 32.4838 25.5215 32.2532 26.2023 31.8962C26.8841 31.5403 27.5437 31.0993 28.1391 30.5968C29.0127 29.8637 29.7788 29.0668 30.8641 27.7684C31.9706 25.8187 33.3552 24.1208 33.9938 21.8365C34.2067 21.2287 34.3974 20.5168 34.526 19.7827C34.6524 19.0495 34.7388 18.2952 34.7388 17.5195C34.7177 16.7439 34.6324 15.947 34.4617 14.9632ZM18.71 32.1905C22.4351 31.603 25.5637 29.529 28.118 26.6995C28.8209 25.6721 29.3741 24.7286 30.0548 23.7022C30.9063 21.6059 30.8431 19.7412 31.1191 18.4216C31.4606 16.031 30.6513 14.1036 29.9705 12.0498C28.9273 9.66022 27.5437 7.87947 25.1169 6.4961C18.9861 2.68172 10.6424 3.74953 6.66234 9.45091C6.64127 9.45091 6.53379 9.59754 6.32093 9.89079C6.59807 8.71779 7.30093 8.0261 8.00273 7.3546C10.0892 5.63653 12.516 4.27335 15.2832 3.60397C18.4129 3.26822 21.5194 3.60397 24.3076 4.9661C28.4805 7.3546 31.2477 11.1073 31.9495 15.5486V19.6573C31.077 26.385 25.3298 31.4988 18.71 32.1905ZM34.0149 16.8905C33.8652 7.04116 24.138 0.397347 14.6657 1.73928C11.8985 2.42991 8.87525 3.81328 6.72557 5.74172C5.68234 6.43235 5.1934 7.7116 4.15017 8.73797C-0.0227299 14.8792 0.702259 22.7385 5.89521 27.5177C6.56132 28.1817 7.27258 28.798 8.02381 29.3622C3.6823 26.741 1.72336 22.7789 1.04263 17.9605C1.04263 16.2413 1.38299 14.5435 1.74443 12.8254C4.1723 5.30078 11.8131 -0.168966 20.1368 1.21441C21.5204 1.55016 22.904 1.9061 24.3097 2.24185C26.0548 2.93247 27.7787 3.95991 29.1623 5.3231C30.5459 6.68416 31.5891 8.40329 32.6323 10.1001C33.3341 11.4633 33.6756 13.1813 34.0159 14.5435C34.0792 15.3191 34.0792 16.116 34.0159 16.8916L34.0149 16.8905Z" fill="black"/>
<path fill-rule="evenodd" clip-rule="evenodd" d="M25.3729 17.0384C25.3729 21.2724 21.8396 24.7096 17.476 24.7096C13.1134 24.7096 9.5791 21.2724 9.5791 17.0384C9.5791 12.8054 13.1124 9.36816 17.476 9.36816C21.8396 9.36816 25.3729 12.8054 25.3729 17.0394V17.0384Z" fill="white"/>
<path fill-rule="evenodd" clip-rule="evenodd" d="M25.416 15.7391C25.3095 15.1526 25.1388 14.6915 24.9692 14.0423C24.2874 12.6164 23.2874 11.5061 21.967 10.5626C17.0291 7.27311 10.2386 10.4372 9.51572 16.0547C9.23964 18.2764 10.0268 20.4141 11.4315 22.0493C11.0057 21.6084 10.5379 21.1483 10.2186 20.6234L10.1764 20.6659C10.2186 20.7913 10.3893 20.8752 10.4314 21.0006C10.4314 21.0006 10.2607 21.0006 10.3039 20.9794C10.1764 20.8338 10.2829 21.0644 10.4736 21.3778C10.6443 21.6923 10.8572 21.9866 11.1122 22.2586C11.4747 22.657 11.8572 23.013 12.4958 23.4954C13.4336 23.9767 14.2629 24.6057 15.3483 24.8989C15.6465 24.9839 15.9869 25.0668 16.3283 25.1295C16.6897 25.1932 17.0301 25.2145 17.4137 25.2145C17.7751 25.2145 18.1587 25.172 18.6266 25.087C19.109 25.0297 19.5859 24.932 20.0523 24.7948C21.094 24.4786 22.0537 23.9344 22.8627 23.201C23.2673 22.8249 23.8427 22.3426 24.2884 21.7135C24.6509 21.0017 24.6931 20.6447 24.8638 20.3302C25.0334 20.0157 25.2463 19.6597 25.3959 19.1774C25.5179 18.6051 25.5891 18.023 25.6088 17.438C25.5877 16.8515 25.5456 16.2852 25.417 15.7402L25.416 15.7391ZM20.3495 11.8419C21.0734 12.2605 21.1798 12.3232 20.7963 12.0512C21.3505 12.1765 21.6909 12.491 22.0313 12.8055C22.8616 13.749 23.5424 14.8594 23.8827 16.1375C24.0745 17.5836 23.9249 19.0297 23.3084 20.3089C22.202 22.2575 20.4348 23.557 18.3273 23.9129C18.0934 23.9129 17.8383 23.9129 17.6034 23.9342C18.1998 23.829 18.5834 23.4518 19.6687 23.0534C20.8384 22.6347 22.1588 20.6861 22.7984 19.5535C24.6709 16.4722 22.457 13.6226 20.3495 11.8419ZM16.3483 23.9544C13.1133 23.6197 10.6222 20.9581 10.2818 17.8769C10.579 19.596 11.6011 20.9156 12.9847 22.0897C13.4747 22.4042 14.1976 22.844 14.6876 23.1585C15.518 23.473 16.0069 23.8088 16.8162 23.9554H16.3483V23.9544ZM25.0535 18.3592C24.9059 19.0095 24.7563 19.6374 24.6067 20.2877C24.2874 21.0845 23.8195 21.9016 23.1809 22.5508C22.5423 23.201 21.7331 23.7036 20.9248 24.186C20.2862 24.5207 19.4769 24.6885 18.8173 24.8554C18.4337 24.8979 17.9869 24.73 17.6034 24.7098C22.3295 24.5834 25.5645 20.1623 24.8627 15.7816C24.5213 14.5034 23.8406 13.392 23.0102 12.2817C22.6699 11.7994 22.0091 11.5061 21.5202 11.0237C18.5612 9.15905 14.6454 9.53624 12.4104 11.9885C12.097 12.3107 11.8052 12.6536 11.5368 13.0149C12.7297 11.2543 14.6454 10.0186 16.9437 9.66161C17.753 9.64036 18.5834 9.78805 19.3916 9.93467C22.9681 11.0237 25.6288 14.5034 25.0535 18.3603V18.3592Z" fill="#D7DF23"/>
</svg>
