<svg width="14" height="14" viewBox="0 0 14 14" fill="none" xmlns="http://www.w3.org/2000/svg">
<path fill-rule="evenodd" clip-rule="evenodd" d="M13.3996 7.15578C13.3996 7.58859 13.3555 8.02081 13.269 8.44213C13.1846 8.85343 13.0596 9.25724 12.8958 9.64325C12.7359 10.0224 12.5374 10.3878 12.3055 10.7286C12.0771 11.0672 11.8139 11.3849 11.5248 11.6745C11.2351 11.9628 10.9164 12.2253 10.5779 12.4547C10.236 12.6849 9.87011 12.8831 9.49069 13.0438C9.10412 13.2067 8.69938 13.3316 8.28843 13.4158C7.86656 13.5026 7.43277 13.5469 6.99932 13.5469C6.56555 13.5469 6.13178 13.5026 5.71051 13.4158C5.29894 13.3316 4.89422 13.2067 4.50795 13.0438C4.12856 12.8831 3.76228 12.6849 3.42039 12.4547C3.08194 12.2253 2.76317 11.9628 2.47409 11.6745C2.18471 11.3849 1.92156 11.0672 1.6928 10.7286C1.46216 10.3878 1.26339 10.0224 1.10277 9.64325C0.93899 9.25724 0.813689 8.85341 0.728994 8.44213C0.643372 8.02081 0.599609 7.58859 0.599609 7.15578C0.599609 6.72263 0.643347 6.28949 0.729019 5.8691C0.813714 5.45779 0.939015 5.05337 1.10279 4.66797C1.26342 4.28851 1.46219 3.92278 1.69283 3.58199C1.92159 3.2431 2.18474 2.92602 2.47412 2.6361C2.7632 2.34774 3.08196 2.08594 3.42042 1.85689C3.7623 1.62563 4.12859 1.4275 4.50797 1.26646C4.89425 1.10321 5.29894 0.978094 5.71054 0.894472C6.13181 0.808348 6.56558 0.764648 6.99935 0.764648C7.43279 0.764648 7.86656 0.808348 8.28846 0.894472C8.69941 0.978119 9.10412 1.10324 9.49072 1.26646C9.87011 1.42747 10.2361 1.62563 10.5779 1.85689C10.9164 2.08594 11.2352 2.34774 11.5249 2.6361C11.814 2.92602 12.0771 3.2431 12.3055 3.58199C12.5374 3.92278 12.7359 4.28853 12.8958 4.66797C13.0596 5.05337 13.1846 5.45779 13.269 5.8691C13.3555 6.28949 13.3996 6.72263 13.3996 7.15578ZM4.6673 2.21918C3.14314 2.93789 2.00558 4.3403 1.65087 6.03046C1.79496 6.03171 4.07258 6.06042 6.69677 5.36418C5.7508 3.68589 4.74012 2.31626 4.6673 2.21918ZM7.1496 6.20461C4.33541 7.04591 1.63494 6.98537 1.53807 6.98165C1.53649 7.04031 1.53369 7.09709 1.53369 7.15577C1.53369 8.55786 2.0634 9.83608 2.93407 10.8026C2.93219 10.7997 4.42792 8.15001 7.37743 7.19759C7.44867 7.17388 7.52119 7.15264 7.59306 7.13206C7.45589 6.82188 7.30616 6.51106 7.1496 6.20461ZM10.6089 3.05959C9.64661 2.21231 8.38313 1.69837 6.9993 1.69837C6.55521 1.69837 6.12425 1.75205 5.71142 1.85128C5.79328 1.96114 6.81992 3.32111 7.75464 5.03495C9.81695 4.26292 10.5954 3.07955 10.6089 3.05959ZM7.96563 8.03642C7.95345 8.04045 7.94128 8.04392 7.92938 8.04828C4.70458 9.17087 3.65148 11.4332 3.64008 11.4579C4.56796 12.1785 5.73177 12.6132 6.99934 12.6132C7.75623 12.6132 8.4772 12.4593 9.13317 12.1807C9.05223 11.7038 8.73472 10.0324 7.96563 8.03642ZM10.0535 11.682C11.2808 10.855 12.1524 9.54184 12.3955 8.02079C12.283 7.98459 10.7539 7.50119 8.98969 7.78363C9.7066 9.75091 9.99789 11.3531 10.0535 11.682ZM8.17534 5.84821C8.30219 6.10848 8.42504 6.37338 8.53846 6.6396C8.57879 6.73511 8.61817 6.82874 8.6566 6.92234C10.5342 6.6864 12.384 7.08335 12.4631 7.09956C12.4506 5.80576 11.9871 4.61834 11.2202 3.68871C11.2099 3.70335 10.3333 4.96816 8.17534 5.84821Z" fill="white"/>
</svg>
