<svg width="14" height="14" viewBox="0 0 14 14" fill="none" xmlns="http://www.w3.org/2000/svg">
<path fill-rule="evenodd" clip-rule="evenodd" d="M7.00021 0.764648C5.26206 0.764648 5.04392 0.772249 4.36125 0.803316C3.67991 0.834516 3.21484 0.942384 2.8079 1.10065C2.38696 1.26412 2.02989 1.48279 1.67415 1.83866C1.31815 2.1944 1.09948 2.55147 0.93548 2.97227C0.776811 3.37934 0.66881 3.84455 0.638143 4.52562C0.607609 5.20829 0.599609 5.42656 0.599609 7.16471C0.599609 8.90287 0.607343 9.12033 0.638276 9.80301C0.66961 10.4843 0.777478 10.9494 0.935613 11.3564C1.09921 11.7773 1.31788 12.1344 1.67375 12.4901C2.02936 12.8461 2.38643 13.0653 2.8071 13.2288C3.2143 13.387 3.67951 13.4949 4.36072 13.5261C5.04339 13.5572 5.26139 13.5648 6.99941 13.5648C8.73769 13.5648 8.95516 13.5572 9.63784 13.5261C10.3192 13.4949 10.7848 13.387 11.192 13.2288C11.6128 13.0653 11.9693 12.8461 12.3249 12.4901C12.6809 12.1344 12.8996 11.7773 13.0636 11.3565C13.2209 10.9494 13.3289 10.4842 13.3609 9.80314C13.3916 9.12047 13.3996 8.90287 13.3996 7.16471C13.3996 5.42656 13.3916 5.20843 13.3609 4.52575C13.3289 3.84441 13.2209 3.37934 13.0636 2.9724C12.8996 2.55147 12.6809 2.1944 12.3249 1.83866C11.9689 1.48266 11.6129 1.26399 11.1916 1.10065C10.7836 0.942384 10.3182 0.834516 9.6369 0.803316C8.95423 0.772249 8.73689 0.764648 6.99821 0.764648H7.00021ZM6.42604 1.91798C6.59644 1.91771 6.78658 1.91798 7.00018 1.91798C8.709 1.91798 8.91154 1.92411 9.58634 1.95478C10.2103 1.98331 10.549 2.08758 10.7746 2.17518C11.0733 2.29118 11.2862 2.42985 11.5101 2.65385C11.7341 2.87785 11.8728 3.09119 11.989 3.38986C12.0766 3.61519 12.181 3.95386 12.2094 4.57787C12.2401 5.25254 12.2468 5.45521 12.2468 7.16323C12.2468 8.87125 12.2401 9.07392 12.2094 9.74859C12.1809 10.3726 12.0766 10.7113 11.989 10.9366C11.873 11.2353 11.7341 11.4479 11.5101 11.6718C11.2861 11.8958 11.0734 12.0345 10.7746 12.1505C10.5493 12.2385 10.2103 12.3425 9.58634 12.371C8.91167 12.4017 8.709 12.4084 7.00018 12.4084C5.29123 12.4084 5.0887 12.4017 4.41402 12.371C3.79002 12.3422 3.45134 12.2379 3.22561 12.1503C2.92694 12.0343 2.7136 11.8957 2.4896 11.6717C2.2656 11.4477 2.12693 11.2349 2.01066 10.9361C1.92306 10.7107 1.81866 10.3721 1.79026 9.74806C1.75959 9.07338 1.75346 8.87072 1.75346 7.16163C1.75346 5.45255 1.75959 5.25094 1.79026 4.57627C1.81879 3.95226 1.92306 3.61359 2.01066 3.38799C2.12666 3.08932 2.2656 2.87599 2.4896 2.65198C2.7136 2.42798 2.92694 2.28931 3.22561 2.17305C3.45121 2.08504 3.79002 1.98104 4.41402 1.95238C5.00443 1.92571 5.23323 1.91771 6.42604 1.91638V1.91798ZM10.4165 2.98066C9.99248 2.98066 9.64848 3.32426 9.64848 3.7484C9.64848 4.1724 9.99248 4.51641 10.4165 4.51641C10.8405 4.51641 11.1845 4.1724 11.1845 3.7484C11.1845 3.32439 10.8405 2.98066 10.4165 2.98066ZM7.00022 3.878C5.18513 3.878 3.71352 5.34961 3.71352 7.1647C3.71352 8.97978 5.18513 10.4507 7.00022 10.4507C8.81531 10.4507 10.2864 8.97978 10.2864 7.1647C10.2864 5.34961 8.81531 3.878 7.00022 3.878ZM7.0002 5.03134C8.17834 5.03134 9.13355 5.98642 9.13355 7.1647C9.13355 8.34284 8.17834 9.29805 7.0002 9.29805C5.82192 9.29805 4.86684 8.34284 4.86684 7.1647C4.86684 5.98642 5.82192 5.03134 7.0002 5.03134Z" fill="white"/>
</svg>
