<svg width="12" height="10" viewBox="0 0 12 10" fill="none" xmlns="http://www.w3.org/2000/svg">
<path fill-rule="evenodd" clip-rule="evenodd" d="M5.6406 2.91825L5.66578 3.33348L5.2461 3.28264C3.71843 3.08773 2.38383 2.42676 1.25067 1.31666L0.696681 0.765851L0.553988 1.1726C0.251813 2.07932 0.444869 3.03689 1.0744 3.68091C1.41015 4.03682 1.33461 4.08767 0.755438 3.87582C0.553988 3.80802 0.377719 3.75718 0.360931 3.7826C0.302175 3.84192 0.503625 4.61306 0.663106 4.91812C0.881344 5.34182 1.32621 5.75705 1.81305 6.0028L2.22434 6.1977L1.73751 6.20617C1.26746 6.20617 1.25067 6.21465 1.30103 6.3926C1.46891 6.94341 2.13201 7.52812 2.87066 7.78234L3.39108 7.9603L2.93781 8.23146C2.26631 8.62127 1.4773 8.84159 0.688288 8.85854C0.310569 8.86702 0 8.90091 0 8.92633C0 9.01107 1.02404 9.48562 1.61999 9.67205C3.40786 10.2229 5.53148 9.98559 7.1263 9.04497C8.25945 8.37552 9.39261 7.0451 9.92142 5.75705C10.2068 5.07065 10.4922 3.8165 10.4922 3.21484C10.4922 2.82504 10.5174 2.77419 10.9874 2.30812C11.2644 2.03695 11.5246 1.74036 11.575 1.65562C11.6589 1.49462 11.6505 1.49462 11.2224 1.63867C10.509 1.8929 10.4083 1.859 10.7608 1.47767C11.021 1.2065 11.3316 0.715007 11.3316 0.570948C11.3316 0.545526 11.2057 0.587896 11.063 0.664162C10.9119 0.748903 10.5761 0.876013 10.3243 0.952279L9.87105 1.09634L9.45976 0.816695C9.23313 0.664162 8.91417 0.494682 8.74629 0.443838C8.31821 0.325202 7.6635 0.34215 7.27738 0.477734C6.22816 0.859065 5.56506 1.84205 5.6406 2.91825Z" fill="white"/>
</svg>
