<svg width="14" height="10" viewBox="0 0 14 10" fill="none" xmlns="http://www.w3.org/2000/svg">
<path fill-rule="evenodd" clip-rule="evenodd" d="M12.0004 1.03931C12.5512 1.19045 12.9849 1.63575 13.1321 2.20126C13.3996 3.22617 13.3996 5.36465 13.3996 5.36465C13.3996 5.36465 13.3996 7.50306 13.1321 8.52804C12.9849 9.09354 12.5512 9.53885 12.0004 9.69006C11.0023 9.96465 6.99961 9.96465 6.99961 9.96465C6.99961 9.96465 2.99692 9.96465 1.99874 9.69006C1.44797 9.53885 1.01423 9.09354 0.867028 8.52804C0.599609 7.50306 0.599609 5.36465 0.599609 5.36465C0.599609 5.36465 0.599609 3.22617 0.867028 2.20126C1.01423 1.63575 1.44797 1.19045 1.99874 1.03931C2.99692 0.764648 6.99961 0.764648 6.99961 0.764648C6.99961 0.764648 11.0023 0.764648 12.0004 1.03931ZM5.79962 3.56461V7.56461L8.99962 5.56468L5.79962 3.56461Z" fill="white"/>
</svg>
